<svg width="124" height="44" viewBox="0 0 124 44" fill="none" xmlns="http://www.w3.org/2000/svg">
<path d="M0.550781 33.2656H2.02804V43.7373H0.550781V33.2656Z" fill="url(#paint0_linear_120_266)"/>
<path d="M14.5521 29.7643H10.3629L9.63525 24.4293H4.54202L3.81441 29.7643H0L4.25539 0.355469H10.3408L14.5521 29.7643ZM5.07119 20.439H9.06199L7.05556 5.55822L5.07119 20.439Z" fill="url(#paint1_linear_120_266)"/>
<path d="M24.4727 7.58507C24.4727 4.9396 23.6349 4.2121 22.312 4.2121C20.9891 4.2121 20.1512 5.00574 20.1512 7.12212V9.01803H16.2266V7.43075C16.2266 2.71299 18.3432 0.0234375 22.4222 0.0234375C26.5012 0.0234375 28.6179 2.71299 28.6179 7.43075V8.1803C28.6179 11.3328 27.7139 13.3169 25.7075 14.2428C27.78 15.2569 28.6179 17.4394 28.6179 20.4156V22.7304C28.6179 27.4481 26.5012 30.1377 22.4222 30.1377C18.3432 30.1377 16.2266 27.4481 16.2266 22.7304V20.2833H20.1512V23.017C20.1512 25.1113 20.9891 25.927 22.312 25.927C23.6349 25.927 24.4727 25.2215 24.4727 22.5981V20.2833C24.4727 17.5497 23.6349 16.5356 21.7608 16.5356H20.3717V12.3249H22.0033C23.5467 12.3249 24.4948 11.5753 24.4948 9.21645V7.58507H24.4727Z" fill="url(#paint2_linear_120_266)"/>
<path d="M43.5007 13.3817H49.3215V22.707C49.3215 27.4247 47.2048 30.1143 43.1258 30.1143C39.0468 30.1143 36.9302 27.4247 36.9302 22.707V7.40732C36.9302 2.68957 39.0468 0 43.1258 0C47.2048 0 49.3215 2.68957 49.3215 7.40732V10.2733H45.3968V7.12073C45.3968 5.0264 44.559 4.21071 43.2361 4.21071C41.9132 4.21071 41.0753 5.00436 41.0753 7.12073V23.0156C41.0753 25.1099 41.9132 25.8815 43.2361 25.8815C44.559 25.8815 45.3968 25.132 45.3968 23.0156V17.5924H43.5007V13.3817Z" fill="url(#paint3_linear_120_266)"/>
<path d="M60.6534 29.7643C60.4329 29.0147 60.2786 28.5518 60.2786 26.1488V21.5192C60.2786 18.7856 59.4407 17.7715 57.5666 17.7715H56.1334V29.7422H51.9883V0.355469H58.2501C62.5496 0.355469 64.4017 2.58207 64.4017 7.12346V9.43825C64.4017 12.4585 63.5418 14.4426 61.6897 15.4126C63.7623 16.3826 64.4458 18.6092 64.4458 21.6735V26.2149C64.4458 27.6479 64.4899 28.684 64.9088 29.7863H60.6534V29.7643ZM56.1334 4.56617V13.6049H57.765C59.3084 13.6049 60.2565 12.8553 60.2565 10.4964V7.58642C60.2565 5.49209 59.6171 4.56617 58.1398 4.56617H56.1334V4.56617Z" fill="url(#paint4_linear_120_266)"/>
<path d="M66.8066 7.40732C66.8066 2.68957 69.0335 0 73.1125 0C77.1915 0 79.4185 2.68957 79.4185 7.40732V22.707C79.4185 27.4247 77.1915 30.1143 73.1125 30.1143C69.0335 30.1143 66.8066 27.4247 66.8066 22.707V7.40732ZM70.9518 23.0156C70.9518 25.1099 71.7896 25.9256 73.1125 25.9256C74.4355 25.9256 75.2733 25.132 75.2733 23.0156V7.12073C75.2733 5.0264 74.4355 4.21071 73.1125 4.21071C71.7896 4.21071 70.9518 5.00436 70.9518 7.12073V23.0156Z" fill="url(#paint5_linear_120_266)"/>
<path d="M86.0558 0.355469V23.0624C86.0558 25.1568 86.8936 25.9283 88.2165 25.9283C89.5395 25.9283 90.3773 25.1788 90.3773 23.0624V0.355469H94.302V22.7538C94.302 27.4715 92.1853 30.1611 88.1063 30.1611C84.0273 30.1611 81.9106 27.4715 81.9106 22.7538V0.355469H86.0558Z" fill="url(#paint6_linear_120_266)"/>
<path d="M109.405 7.63051V11.4444C109.405 16.1622 107.376 18.7194 103.209 18.7194H101.269V29.7643H97.1235V0.355469H103.231C107.376 0.355469 109.405 2.91276 109.405 7.63051ZM101.269 4.56617V14.5308H103.231C104.554 14.5308 105.259 13.8474 105.259 11.753V7.34392C105.259 5.24959 104.532 4.56617 103.231 4.56617H101.269Z" fill="url(#paint7_linear_120_266)"/>
<path d="M116.923 0.0234375C120.958 0.0234375 123.03 2.71299 123.03 7.43075V8.55508H119.106V7.12212C119.106 5.02779 118.356 4.2121 117.033 4.2121C115.71 4.2121 114.961 5.00574 114.961 7.12212C114.961 13.1847 123.074 14.309 123.074 22.7083C123.074 27.4261 120.958 30.1157 116.879 30.1157C112.8 30.1157 110.683 27.4261 110.683 22.7083V20.7022H114.608V23.017C114.608 25.1113 115.446 25.8829 116.769 25.8829C118.091 25.8829 118.929 25.1334 118.929 23.017C118.929 16.9544 110.815 15.8301 110.815 7.43075C110.815 2.71299 112.888 0.0234375 116.923 0.0234375Z" fill="url(#paint8_linear_120_266)"/>
<path d="M11.2437 42.1504V43.7377H9.81055V42.1504H11.2437Z" fill="url(#paint9_linear_120_266)"/>
<path d="M17.8145 33.2656H22.3785V34.7647H20.8351V43.7373H19.3579V34.7647H17.8145V33.2656Z" fill="url(#paint10_linear_120_266)"/>
<path d="M30.3594 42.1504V43.7377H28.9482V42.1504H30.3594Z" fill="url(#paint11_linear_120_266)"/>
<path d="M40.0603 33.1562C41.4934 33.1562 42.2431 34.1042 42.2431 35.7797V36.1765H40.854V35.6695C40.854 34.9199 40.5894 34.6333 40.1264 34.6333C39.6634 34.6333 39.3988 34.9199 39.3988 35.6695C39.3988 37.8299 42.2872 38.2267 42.2872 41.2249C42.2872 42.9004 41.5375 43.8484 40.0823 43.8484C38.6271 43.8484 37.8774 42.9004 37.8774 41.2249V40.4974H39.2665V41.3131C39.2665 42.0627 39.5531 42.3272 40.0382 42.3272C40.5012 42.3272 40.8099 42.0627 40.8099 41.3131C40.8099 39.1526 37.9215 38.7558 37.9215 35.7576C37.8995 34.1042 38.6271 33.1562 40.0603 33.1562Z" fill="url(#paint12_linear_120_266)"/>
<path d="M49.6978 35.7797C49.6978 34.1042 50.4915 33.1562 51.9467 33.1562C53.4019 33.1562 54.1957 34.1042 54.1957 35.7797V41.2249C54.1957 42.9004 53.4019 43.8484 51.9467 43.8484C50.4915 43.8484 49.6978 42.9004 49.6978 41.2249V35.7797ZM51.153 41.3131C51.153 42.0627 51.4396 42.3493 51.9247 42.3493C52.3877 42.3493 52.6964 42.0627 52.6964 41.3131V35.6695C52.6964 34.9199 52.4097 34.6333 51.9247 34.6333C51.4616 34.6333 51.153 34.9199 51.153 35.6695V41.3131Z" fill="url(#paint13_linear_120_266)"/>
<path d="M61.8242 33.2656H63.3015V42.2382H65.7268V43.7373H61.8242V33.2656Z" fill="url(#paint14_linear_120_266)"/>
<path d="M74.5232 33.2656V41.3343C74.5232 42.0839 74.8098 42.3484 75.2949 42.3484C75.7579 42.3484 76.0666 42.0839 76.0666 41.3343V33.2656H77.4556V41.2241C77.4556 42.8995 76.706 43.8475 75.2508 43.8475C73.7956 43.8475 73.0459 42.8995 73.0459 41.2241V33.2656H74.5232Z" fill="url(#paint15_linear_120_266)"/>
<path d="M84.7539 33.2656H89.318V34.7647H87.7746V43.7373H86.2973V34.7647H84.7539V33.2656V33.2656Z" fill="url(#paint16_linear_120_266)"/>
<path d="M96.7051 33.2656H98.1823V43.7373H96.7051V33.2656Z" fill="url(#paint17_linear_120_266)"/>
<path d="M105.832 35.7797C105.832 34.1042 106.626 33.1562 108.081 33.1562C109.536 33.1562 110.33 34.1042 110.33 35.7797V41.2249C110.33 42.9004 109.536 43.8484 108.081 43.8484C106.626 43.8484 105.832 42.9004 105.832 41.2249V35.7797ZM107.309 41.3131C107.309 42.0627 107.596 42.3493 108.081 42.3493C108.566 42.3493 108.853 42.0627 108.853 41.3131V35.6695C108.853 34.9199 108.566 34.6333 108.081 34.6333C107.596 34.6333 107.309 34.9199 107.309 35.6695V41.3131Z" fill="url(#paint18_linear_120_266)"/>
<path d="M119.282 36.1536V43.7373H117.959V33.2656H119.812L121.333 39.5266V33.2656H122.656V43.7373H121.134L119.282 36.1536Z" fill="url(#paint19_linear_120_266)"/>
<defs>
<linearGradient id="paint0_linear_120_266" x1="0.520774" y1="47.5945" x2="2.55045" y2="47.5631" gradientUnits="userSpaceOnUse">
<stop stop-color="#4141C1"/>
<stop offset="1" stop-color="#6435C4"/>
</linearGradient>
<linearGradient id="paint1_linear_120_266" x1="-0.295595" y1="40.5971" x2="19.6442" y2="39.5144" gradientUnits="userSpaceOnUse">
<stop stop-color="#4141C1"/>
<stop offset="1" stop-color="#6435C4"/>
</linearGradient>
<linearGradient id="paint2_linear_120_266" x1="15.9749" y1="41.2304" x2="32.9693" y2="40.463" gradientUnits="userSpaceOnUse">
<stop stop-color="#4141C1"/>
<stop offset="1" stop-color="#6435C4"/>
</linearGradient>
<linearGradient id="paint3_linear_120_266" x1="36.6785" y1="41.2069" x2="53.6729" y2="40.4396" gradientUnits="userSpaceOnUse">
<stop stop-color="#4141C1"/>
<stop offset="1" stop-color="#6435C4"/>
</linearGradient>
<linearGradient id="paint4_linear_120_266" x1="51.7258" y1="40.6272" x2="69.441" y2="39.7738" gradientUnits="userSpaceOnUse">
<stop stop-color="#4141C1"/>
<stop offset="1" stop-color="#6435C4"/>
</linearGradient>
<linearGradient id="paint5_linear_120_266" x1="66.5505" y1="41.2069" x2="83.846" y2="40.4121" gradientUnits="userSpaceOnUse">
<stop stop-color="#4141C1"/>
<stop offset="1" stop-color="#6435C4"/>
</linearGradient>
<linearGradient id="paint6_linear_120_266" x1="81.6589" y1="41.1401" x2="98.6527" y2="40.3648" gradientUnits="userSpaceOnUse">
<stop stop-color="#4141C1"/>
<stop offset="1" stop-color="#6435C4"/>
</linearGradient>
<linearGradient id="paint7_linear_120_266" x1="96.8741" y1="40.5971" x2="113.716" y2="39.8253" gradientUnits="userSpaceOnUse">
<stop stop-color="#4141C1"/>
<stop offset="1" stop-color="#6435C4"/>
</linearGradient>
<linearGradient id="paint8_linear_120_266" x1="110.431" y1="41.2002" x2="127.426" y2="40.4323" gradientUnits="userSpaceOnUse">
<stop stop-color="#4141C1"/>
<stop offset="1" stop-color="#6435C4"/>
</linearGradient>
<linearGradient id="paint9_linear_120_266" x1="9.78144" y1="44.3224" x2="11.7318" y2="44.1291" gradientUnits="userSpaceOnUse">
<stop stop-color="#4141C1"/>
<stop offset="1" stop-color="#6435C4"/>
</linearGradient>
<linearGradient id="paint10_linear_120_266" x1="17.7217" y1="47.5945" x2="23.9797" y2="47.2952" gradientUnits="userSpaceOnUse">
<stop stop-color="#4141C1"/>
<stop offset="1" stop-color="#6435C4"/>
</linearGradient>
<linearGradient id="paint11_linear_120_266" x1="28.9196" y1="44.3224" x2="30.8406" y2="44.135" gradientUnits="userSpaceOnUse">
<stop stop-color="#4141C1"/>
<stop offset="1" stop-color="#6435C4"/>
</linearGradient>
<linearGradient id="paint12_linear_120_266" x1="37.7879" y1="47.7868" x2="43.8357" y2="47.5131" gradientUnits="userSpaceOnUse">
<stop stop-color="#4141C1"/>
<stop offset="1" stop-color="#6435C4"/>
</linearGradient>
<linearGradient id="paint13_linear_120_266" x1="49.6064" y1="47.7868" x2="55.7746" y2="47.5021" gradientUnits="userSpaceOnUse">
<stop stop-color="#4141C1"/>
<stop offset="1" stop-color="#6435C4"/>
</linearGradient>
<linearGradient id="paint14_linear_120_266" x1="61.7449" y1="47.5945" x2="67.0992" y2="47.3756" gradientUnits="userSpaceOnUse">
<stop stop-color="#4141C1"/>
<stop offset="1" stop-color="#6435C4"/>
</linearGradient>
<linearGradient id="paint15_linear_120_266" x1="72.9563" y1="47.7454" x2="79.0039" y2="47.4688" gradientUnits="userSpaceOnUse">
<stop stop-color="#4141C1"/>
<stop offset="1" stop-color="#6435C4"/>
</linearGradient>
<linearGradient id="paint16_linear_120_266" x1="84.6612" y1="47.5945" x2="90.9192" y2="47.2952" gradientUnits="userSpaceOnUse">
<stop stop-color="#4141C1"/>
<stop offset="1" stop-color="#6435C4"/>
</linearGradient>
<linearGradient id="paint17_linear_120_266" x1="96.6751" y1="47.5945" x2="98.7047" y2="47.5631" gradientUnits="userSpaceOnUse">
<stop stop-color="#4141C1"/>
<stop offset="1" stop-color="#6435C4"/>
</linearGradient>
<linearGradient id="paint18_linear_120_266" x1="105.741" y1="47.7868" x2="111.909" y2="47.5021" gradientUnits="userSpaceOnUse">
<stop stop-color="#4141C1"/>
<stop offset="1" stop-color="#6435C4"/>
</linearGradient>
<linearGradient id="paint19_linear_120_266" x1="117.864" y1="47.5945" x2="124.303" y2="47.2777" gradientUnits="userSpaceOnUse">
<stop stop-color="#4141C1"/>
<stop offset="1" stop-color="#6435C4"/>
</linearGradient>
</defs>
</svg>
