<svg width="42" height="42" viewBox="0 0 42 42" fill="none" xmlns="http://www.w3.org/2000/svg">
<path d="M22.9686 40.6875H19.0311C18.7108 40.6875 18.4365 40.4552 18.384 40.1389L17.7606 36.4009C16.6673 36.1712 15.5976 35.8234 14.5699 35.3614L11.8661 38.0218C11.6365 38.2476 11.2781 38.2738 11.0196 38.0848L7.83546 35.7709C7.57689 35.5819 7.49027 35.2341 7.63464 34.9466L9.32777 31.5564C8.56389 30.7151 7.89846 29.8056 7.34196 28.8422L3.60658 29.4039C3.28239 29.4551 2.98314 29.2648 2.88471 28.9577L1.66671 25.2118C1.56827 24.9073 1.70346 24.5753 1.98827 24.4269L5.35221 22.6774C5.28264 22.0644 5.24983 21.5211 5.24983 21C5.24983 20.4789 5.28264 19.9369 5.35352 19.3226L1.98958 17.5744C1.70477 17.4274 1.56958 17.0953 1.66802 16.7895L2.88471 13.0436C2.98314 12.7391 3.27977 12.5475 3.60658 12.5974L7.34458 13.1578C7.55196 12.7982 7.77639 12.4438 8.01264 12.1026C8.21608 11.802 8.62427 11.7298 8.92352 11.9372C9.22146 12.1433 9.29627 12.5514 9.09021 12.8494C8.79358 13.2773 8.51927 13.7274 8.27252 14.1868C8.14127 14.4296 7.87614 14.5674 7.59658 14.5241L3.96096 13.9781L3.08814 16.6661L6.36414 18.3684C6.61089 18.4958 6.74871 18.7648 6.71196 19.0391C6.60958 19.7899 6.56233 20.4133 6.56233 21C6.56233 21.5867 6.60958 22.2101 6.71064 22.9609C6.74739 23.2352 6.60958 23.5042 6.36283 23.6316L3.08683 25.3352L3.96096 28.0232L7.59658 27.4772C7.86696 27.4326 8.14127 27.5704 8.27252 27.8158C8.88677 28.9577 9.66639 30.0261 10.5917 30.9881C10.7833 31.1876 10.8306 31.4882 10.7059 31.7362L9.05608 35.0359L11.3425 36.6975L13.974 34.1066C14.1722 33.9124 14.4701 33.8651 14.7208 33.9833C15.9073 34.5594 17.1608 34.9676 18.4483 35.1973C18.7213 35.2459 18.934 35.4611 18.9799 35.7354L19.5876 39.375H22.4121L23.0185 35.7368C23.0644 35.4624 23.277 35.2472 23.55 35.1986C24.835 34.9689 26.091 34.5621 27.2801 33.9846C27.5269 33.8651 27.8288 33.9124 28.0256 34.1079L30.6572 36.6975L32.9423 35.0359L31.2951 31.7362C31.1704 31.4882 31.2163 31.1889 31.4093 30.9881C32.332 30.0274 33.1129 28.959 33.7271 27.8158C33.8584 27.5717 34.1196 27.4352 34.4031 27.4772L38.04 28.0219L38.9128 25.3339L35.6368 23.6316C35.3901 23.5042 35.2523 23.2352 35.289 22.9609C35.3901 22.2101 35.4373 21.5867 35.4373 21C35.4373 20.4133 35.3901 19.7899 35.289 19.0391C35.2523 18.7648 35.3901 18.4958 35.6368 18.3684L38.9128 16.6648L38.0387 13.9768L34.4031 14.5228C34.1261 14.5609 33.8584 14.4283 33.7271 14.1842C33.1129 13.0423 32.3333 11.9739 31.408 11.0119C31.2163 10.8124 31.1691 10.5118 31.2938 10.2638L32.9436 6.96413L30.6559 5.3025L28.0243 7.89337C27.8275 8.08763 27.5295 8.1375 27.2775 8.01675C26.091 7.44056 24.8376 7.03237 23.55 6.80269C23.277 6.75413 23.0644 6.53888 23.0185 6.26456L22.4121 2.625H19.5876L18.9812 6.26325C18.9353 6.53756 18.7226 6.75281 18.4496 6.80138C17.1647 7.03106 15.9086 7.43794 14.7195 8.01544C14.4728 8.13488 14.1722 8.08763 13.974 7.89206L11.3425 5.30381L9.05608 6.96544L10.7033 10.2638C10.8647 10.5879 10.7335 10.983 10.4093 11.1444C10.0851 11.3072 9.69264 11.1746 9.52989 10.8517L7.63333 7.05469C7.49027 6.76725 7.57558 6.41944 7.83546 6.23044L11.0209 3.91519C11.2781 3.72488 11.6378 3.75375 11.8675 3.97819L14.5712 6.63731C15.5989 6.17531 16.6699 5.8275 17.7632 5.59781L18.3866 1.85981C18.4365 1.54481 18.7108 1.3125 19.0311 1.3125H22.9686C23.2888 1.3125 23.5631 1.54481 23.6156 1.86112L24.2391 5.59912C25.3324 5.82881 26.4021 6.17663 27.4298 6.63863L30.1335 3.97819C30.3632 3.75375 30.7215 3.72619 30.9801 3.91519L34.1668 6.23044C34.4254 6.41944 34.512 6.76725 34.3676 7.05469L32.6745 10.4449C33.4384 11.2862 34.1038 12.1958 34.6603 13.1591L38.3957 12.5974C38.7199 12.5475 39.0191 12.7378 39.1176 13.0436L40.3356 16.7895C40.434 17.094 40.2988 17.4261 40.014 17.5744L36.6501 19.3239C36.717 19.9356 36.7498 20.4789 36.7498 21C36.7498 21.5211 36.717 22.0631 36.6461 22.6774L40.0101 24.4256C40.2949 24.5726 40.4301 24.9047 40.3316 25.2105L39.115 28.9564C39.0178 29.2622 38.7173 29.4564 38.3931 29.4026L34.6564 28.8422C34.0986 29.8056 33.4345 30.7164 32.6719 31.5564L34.3637 34.9453C34.5068 35.2327 34.4215 35.5806 34.1629 35.7696L30.9775 38.0848C30.7202 38.2738 30.3606 38.2463 30.1309 38.0218L27.4271 35.3627C26.3995 35.8247 25.3285 36.1725 24.2351 36.4022L23.6117 40.1402C23.5631 40.4552 23.2888 40.6875 22.9686 40.6875ZM20.9998 26.25C18.1045 26.25 15.7498 23.8954 15.7498 21C15.7498 18.1046 18.1045 15.75 20.9998 15.75C23.8952 15.75 26.2498 18.1046 26.2498 21C26.2498 23.8954 23.8952 26.25 20.9998 26.25ZM20.9998 17.0625C18.829 17.0625 17.0623 18.8291 17.0623 21C17.0623 23.1709 18.829 24.9375 20.9998 24.9375C23.1707 24.9375 24.9373 23.1709 24.9373 21C24.9373 18.8291 23.1707 17.0625 20.9998 17.0625Z" fill="url(#paint0_linear_76_226)"/>
<path d="M21 31.5C15.2106 31.5 10.5 26.7894 10.5 21C10.5 15.2106 15.2106 10.5 21 10.5C26.7894 10.5 31.5 15.2106 31.5 21C31.5 23.3376 30.7479 25.5518 29.3252 27.4024C29.1047 27.6898 28.6912 27.7423 28.4051 27.5231C28.1177 27.3026 28.0639 26.8905 28.2844 26.6031C29.5299 24.9821 30.1875 23.0462 30.1875 21C30.1875 15.9351 26.0649 11.8125 21 11.8125C15.9351 11.8125 11.8125 15.9351 11.8125 21C11.8125 26.0649 15.9351 30.1875 21 30.1875C22.0868 30.1875 23.1551 29.9972 24.1763 29.6231C24.5162 29.5011 24.8942 29.673 25.0189 30.0142C25.1436 30.3542 24.969 30.7309 24.6278 30.8569C23.4622 31.2834 22.2403 31.5 21 31.5Z" fill="url(#paint1_linear_76_226)"/>
<path d="M26.9062 29.5312C27.2687 29.5312 27.5625 29.2374 27.5625 28.875C27.5625 28.5126 27.2687 28.2188 26.9062 28.2188C26.5438 28.2188 26.25 28.5126 26.25 28.875C26.25 29.2374 26.5438 29.5312 26.9062 29.5312Z" fill="url(#paint2_linear_76_226)"/>
<circle cx="21" cy="21" r="7" fill="url(#paint3_linear_76_226)"/>
<defs>
<linearGradient id="paint0_linear_76_226" x1="1.63477" y1="32.8125" x2="34.0936" y2="33.2682" gradientUnits="userSpaceOnUse">
<stop stop-color="#4141C1"/>
<stop offset="1" stop-color="#6435C4"/>
</linearGradient>
<linearGradient id="paint1_linear_76_226" x1="10.5" y1="27.3" x2="28.0983" y2="27.5512" gradientUnits="userSpaceOnUse">
<stop stop-color="#4141C1"/>
<stop offset="1" stop-color="#6435C4"/>
</linearGradient>
<linearGradient id="paint2_linear_76_226" x1="26.25" y1="29.2688" x2="27.3499" y2="29.2844" gradientUnits="userSpaceOnUse">
<stop stop-color="#4141C1"/>
<stop offset="1" stop-color="#6435C4"/>
</linearGradient>
<linearGradient id="paint3_linear_76_226" x1="14" y1="25.2" x2="25.7322" y2="25.3674" gradientUnits="userSpaceOnUse">
<stop stop-color="#4141C1"/>
<stop offset="1" stop-color="#6435C4"/>
</linearGradient>
</defs>
</svg>
